<svg width="136" height="40" viewBox="0 0 136 40" fill="none" xmlns="http://www.w3.org/2000/svg">
<path d="M48.728 15.964L49.04 16.024V28H44.864V12.16H50.528L56.252 24.112L55.952 24.172V12.16H60.116V28H54.428L48.728 15.964ZM66.5896 20.068C66.5896 20.868 66.7496 21.596 67.0696 22.252C67.3976 22.9 67.8536 23.416 68.4376 23.8C69.0216 24.184 69.7016 24.376 70.4776 24.376C71.2536 24.376 71.9336 24.184 72.5176 23.8C73.1016 23.416 73.5536 22.9 73.8736 22.252C74.2016 21.596 74.3656 20.868 74.3656 20.068C74.3656 19.268 74.2016 18.544 73.8736 17.896C73.5536 17.248 73.1016 16.732 72.5176 16.348C71.9336 15.956 71.2536 15.76 70.4776 15.76C69.7016 15.76 69.0216 15.956 68.4376 16.348C67.8536 16.732 67.3976 17.248 67.0696 17.896C66.7496 18.544 66.5896 19.268 66.5896 20.068ZM62.2336 20.068C62.2336 18.916 62.4416 17.844 62.8576 16.852C63.2736 15.852 63.8536 14.98 64.5976 14.236C65.3416 13.492 66.2136 12.912 67.2136 12.496C68.2216 12.08 69.3096 11.872 70.4776 11.872C71.6616 11.872 72.7536 12.08 73.7536 12.496C74.7536 12.912 75.6256 13.492 76.3696 14.236C77.1136 14.98 77.6896 15.852 78.0976 16.852C78.5056 17.844 78.7096 18.916 78.7096 20.068C78.7096 21.228 78.5096 22.308 78.1096 23.308C77.7096 24.3 77.1416 25.172 76.4056 25.924C75.6776 26.668 74.8096 27.248 73.8016 27.664C72.7936 28.08 71.6856 28.288 70.4776 28.288C69.2296 28.288 68.1016 28.08 67.0936 27.664C66.0856 27.248 65.2176 26.668 64.4896 25.924C63.7696 25.172 63.2136 24.3 62.8216 23.308C62.4296 22.308 62.2336 21.228 62.2336 20.068ZM80.5336 12.16H87.3496C88.2936 12.16 89.1296 12.36 89.8576 12.76C90.5856 13.152 91.1576 13.716 91.5736 14.452C91.9976 15.188 92.2096 16.064 92.2096 17.08C92.2096 18.088 92.0376 18.908 91.6936 19.54C91.3496 20.172 90.9376 20.644 90.4576 20.956C89.9776 21.268 89.5376 21.464 89.1376 21.544L92.9536 28H88.2616L84.9256 21.868H84.7216V28H80.5336V12.16ZM84.7216 19.012H85.8496C86.3696 19.012 86.8416 18.888 87.2656 18.64C87.6976 18.392 87.9136 17.916 87.9136 17.212C87.9136 16.516 87.7016 16.044 87.2776 15.796C86.8616 15.548 86.3976 15.424 85.8856 15.424H84.7216V19.012ZM95.3049 12.16H104.809V15.796H99.4809V18.244H104.389V21.88H99.4809V28H95.3049V12.16ZM107.047 12.16H111.223V24.364H116.791V28H107.047V12.16ZM122.558 20.068C122.558 20.868 122.718 21.596 123.038 22.252C123.366 22.9 123.822 23.416 124.406 23.8C124.99 24.184 125.67 24.376 126.446 24.376C127.222 24.376 127.902 24.184 128.486 23.8C129.07 23.416 129.522 22.9 129.842 22.252C130.17 21.596 130.334 20.868 130.334 20.068C130.334 19.268 130.17 18.544 129.842 17.896C129.522 17.248 129.07 16.732 128.486 16.348C127.902 15.956 127.222 15.76 126.446 15.76C125.67 15.76 124.99 15.956 124.406 16.348C123.822 16.732 123.366 17.248 123.038 17.896C122.718 18.544 122.558 19.268 122.558 20.068ZM118.202 20.068C118.202 18.916 118.41 17.844 118.826 16.852C119.242 15.852 119.822 14.98 120.566 14.236C121.31 13.492 122.182 12.912 123.182 12.496C124.19 12.08 125.278 11.872 126.446 11.872C127.63 11.872 128.722 12.08 129.722 12.496C130.722 12.912 131.594 13.492 132.338 14.236C133.082 14.98 133.658 15.852 134.066 16.852C134.474 17.844 134.678 18.916 134.678 20.068C134.678 21.228 134.478 22.308 134.078 23.308C133.678 24.3 133.11 25.172 132.374 25.924C131.646 26.668 130.778 27.248 129.77 27.664C128.762 28.08 127.654 28.288 126.446 28.288C125.198 28.288 124.07 28.08 123.062 27.664C122.054 27.248 121.186 26.668 120.458 25.924C119.738 25.172 119.182 24.3 118.79 23.308C118.398 22.308 118.202 21.228 118.202 20.068Z" fill="#0A0102"/>
<g clip-path="url(#clip0_529_299)">
<path fill-rule="evenodd" clip-rule="evenodd" d="M26.7145 3.24086V15.905C26.7145 17.8337 24.9339 19.4066 23.0442 19.4066C17.1604 19.4066 17.1349 6.11666 6.96558 9.2529C5.87951 9.57663 4.92995 10.2435 4.26159 11.1519C3.59324 12.0604 3.24275 13.1605 3.26351 14.2848L3.31843 20.0127L3.38848 26.8471C3.38896 27.6591 3.65264 28.4495 4.14062 29.1018C4.62861 29.754 5.31507 30.2334 6.09877 30.4694L7.24338 30.8269V24.1496C7.24827 23.3812 7.49839 22.634 7.95788 22.0152C8.41736 21.3964 9.06264 20.9377 9.80123 20.7048C10.5398 20.4719 11.3338 20.4768 12.0694 20.7188C12.805 20.9608 13.4445 21.4275 13.8961 22.0519C16.6359 25.8069 17.2408 33.5236 24.3807 36.1658C26.0737 36.693 27.1515 37.3567 29.1565 36.008C30.2096 35.2977 30.7365 34.1762 30.7365 32.9143V7.08342C30.7354 6.5668 30.6294 6.05568 30.425 5.58047C30.2206 5.10525 29.9219 4.67564 29.5467 4.31717C29.1715 3.95869 28.7274 3.67868 28.2409 3.49379C27.7543 3.30889 27.2352 3.22287 26.7145 3.24086ZM24.824 0.305872C25.889 -0.00965864 27.0136 -0.0740879 28.1081 0.117723C29.2026 0.309533 30.2368 0.752276 31.1282 1.41064C32.0195 2.069 32.7434 2.92477 33.242 3.90968C33.7406 4.89459 34.0002 5.9814 34 7.08342V32.9175C34 34.0279 33.7363 35.1227 33.2303 36.1133C32.7243 37.1039 31.9902 37.9625 31.0874 38.6196C30.1846 39.2766 29.1384 39.7138 28.0335 39.8955C26.9287 40.0773 25.7962 39.9986 24.7277 39.6658L5.12211 33.5591C3.68097 33.1184 2.41928 32.2333 1.52065 31.0325C0.622028 29.8316 0.133366 28.3778 0.125786 26.8826L0.0549443 20.0458L2.21381e-05 14.3179C-0.0281779 12.4976 0.541508 10.7176 1.62312 9.24645C2.70473 7.77531 4.23959 6.69286 5.99609 6.16244C13.8157 3.75147 18.1156 2.29305 24.824 0.305872Z" fill="#C90E0E"/>
</g>
<defs>
<clipPath id="clip0_529_299">
<rect width="34" height="40" fill="white"/>
</clipPath>
</defs>
</svg>
